# xmcd
#
# Track frame offsets: 
#        150
#        11655
#        22402
#        35359
#        47224
#        58811
#        70215
#        80509
#        91120
#        102508
#        113360
#        125481
#        136108
#        146566
#        159286
#        172720
#        186667
#        200319
#        214478
#        227773
#        242850
#        255873
#        270263
#        284718
#        300886
#        315344
#        329165
#
# Disc length: 4608 seconds
#
# Revision: 0
# Processed by: cddbd v1.5.2PL0 Copyright (c) Steve Scherf et al.
# Submitted via: ExactAudioCopyFreeDBPlugin 1.0
#
DISCID=7d11fe1b
DTITLE=Robert Johnson - Crossroads blues CD2 (Compilation Blues Charac
DTITLE=ters)
DYEAR=1900
DGENRE=Blues
TTITLE0=Kind hearted woman blues
TTITLE1=Ramblin' on my mind
TTITLE2=When you got a good friend
TTITLE3=Come on in my kitchen
TTITLE4=Phonograph blues
TTITLE5=Cross road blues
TTITLE6=Little queen of spades
TTITLE7=Drunken hearted man
TTITLE8=Me and the devil blues
TTITLE9=Stop breakin' down blues
TTITLE10=Travelin riverside blues
TTITLE11=Love in vain
TTITLE12=Milkcow's Calf blues
TTITLE13=Mississippi bottom blues
TTITLE14=Rowdy blues
TTITLE15=M and O blues
TTITLE16=Future blues
TTITLE17=My black mama
TTITLE18=Walkin' blues
TTITLE19=Dry well blues
TTITLE20=Some summer day
TTITLE21=Moon going down
TTITLE22=Bird nest bound
TTITLE23=Cool drink of water blues
TTITLE24=Big road blues
TTITLE25=Bye-bye blues
TTITLE26=Canned heat blues
EXTD=
EXTT0=
EXTT1=
EXTT2=
EXTT3=
EXTT4=
EXTT5=
EXTT6=
EXTT7=
EXTT8=
EXTT9=
EXTT10=
EXTT11=
EXTT12=
EXTT13=
EXTT14=
EXTT15=
EXTT16=
EXTT17=
EXTT18=
EXTT19=
EXTT20=
EXTT21=
EXTT22=
EXTT23=
EXTT24=
EXTT25=
EXTT26=
PLAYORDER=
